<svg xmlns="http://www.w3.org/2000/svg" viewBox="0 0 256 256" fill-rule="nonzero" aria-hidden="true">
  <g fill="currentColor" fill-rule="nonzero">
    <g transform="scale(5.12,5.12)">
      <path d="M21,2c-1.64545,0 -3,1.35455 -3,3v2h-10c-0.553,0 -1,0.448 -1,1c0,0.552 0.447,1 1,1h1v36c0,1.654 1.346,3 3,3h22.03711c1.669,1.249 3.72989,2 5.96289,2c5.5,0 10,-4.5 10,-10c0,-5.163 -3.965,-9.44322 -9,-9.94922v-21.05078h1c0.553,0 1,-0.448 1,-1c0,-0.552 -0.447,-1 -1,-1h-10v-2c0,-1.64545 -1.35455,-3 -3,-3zM21,4h8c0.55455,0 1,0.44545 1,1v2h-10v-2c0,-0.55455 0.44545,-1 1,-1zM19,14c0.553,0 1,0.448 1,1v25c0,0.552 -0.447,1 -1,1c-0.553,0 -1,-0.448 -1,-1v-25c0,-0.552 0.447,-1 1,-1zM25,14c0.553,0 1,0.448 1,1v25c0,0.552 -0.447,1 -1,1c-0.553,0 -1,-0.448 -1,-1v-25c0,-0.552 0.447,-1 1,-1zM31,14c0.553,0 1,0.448 1,1v19.01758c-1.047,1.398 -1.74245,3.0753 -1.93945,4.9043c-0.018,0.028 -0.04255,0.05013 -0.06055,0.07813v-24c0,-0.552 0.447,-1 1,-1zM40,32c4.4,0 8,3.6 8,8c0,4.4 -3.6,8 -8,8c-4.4,0 -8,-3.6 -8,-8c0,-4.4 3.6,-8 8,-8zM36.5,35.5c-0.25,0 -0.49922,0.10078 -0.69922,0.30078c-0.4,0.4 -0.4,0.99844 0,1.39844l2.79883,2.80078l-2.79883,2.80078c-0.4,0.4 -0.4,0.99844 0,1.39844c0.4,0.4 0.99844,0.4 1.39844,0l2.80078,-2.79883l2.80078,2.79883c0.4,0.4 0.99844,0.4 1.39844,0c0.2,-0.2 0.30078,-0.49922 0.30078,-0.69922c0,-0.2 -0.10078,-0.49922 -0.30078,-0.69922l-2.79883,-2.80078l2.79883,-2.80078c0.2,-0.2 0.30078,-0.49922 0.30078,-0.69922c0,-0.2 -0.10078,-0.49922 -0.30078,-0.69922c-0.4,-0.4 -0.99844,-0.4 -1.39844,0l-2.80078,2.79883l-2.80078,-2.79883c-0.2,-0.2 -0.44922,-0.30078 -0.69922,-0.30078z"></path>
    </g>
  </g>
</svg>
